<svg width="409" height="391" viewBox="0 0 409 391" fill="none" xmlns="http://www.w3.org/2000/svg">
<g clip-path="url(#clip0_75_405)">
<g opacity="0.5" filter="url(#filter0_d_75_405)">
<path d="M315.541 234.597C315.488 234.73 315.386 234.838 315.256 234.898C315.118 234.963 314.96 234.971 314.816 234.92C314.673 234.869 314.555 234.763 314.49 234.625L313.409 232.322L295.023 193.199L243.456 83.457C243.161 82.8336 242.652 82.3368 242.022 82.0564C241.392 81.7761 240.682 81.7309 240.021 81.9289L83.253 129.638L81.8406 130.065C81.786 130.082 81.7291 130.091 81.6719 130.09C81.5712 130.09 81.4724 130.063 81.3853 130.013C81.2605 129.94 81.1666 129.824 81.1216 129.687C81.0991 129.615 81.091 129.539 81.0978 129.464C81.1046 129.389 81.1262 129.316 81.1613 129.249C81.1964 129.182 81.2443 129.123 81.3024 129.075C81.3604 129.026 81.4274 128.99 81.4995 128.968L81.6975 128.905L239.688 80.8288C240.613 80.5528 241.606 80.6165 242.489 81.0083C243.371 81.4002 244.084 82.0944 244.5 82.9659L296.083 192.741L315.529 234.132C315.563 234.204 315.581 234.283 315.583 234.363C315.585 234.443 315.571 234.523 315.541 234.597Z" fill="#F3F3F0"/>
</g>
<path d="M251.571 61.4481C252.658 61.5283 253.674 62.0107 254.424 62.7952L254.57 62.9567C255.283 63.7813 255.663 64.8395 255.641 65.925L255.631 66.1419L250.827 132.359L248.166 169.072L245.785 201.917L244.675 217.169L244.357 221.588C244.27 222.748 243.727 223.826 242.847 224.587C242.022 225.301 240.963 225.681 239.878 225.658L239.661 225.648L233.994 225.239L191.938 222.201L164.059 220.185L164.059 220.186L162.615 220.081L133.581 187.305L132.464 186.044L125.574 178.267L101.202 150.757L101.306 149.365L101.305 149.363L108.114 55.4872C108.194 54.3994 108.675 53.383 109.46 52.6326L109.621 52.4853C110.5 51.7238 111.646 51.3429 112.806 51.4246L112.805 51.4233L251.571 61.4493L251.571 61.4481Z" fill="#202A35" stroke="#F3F3F0"/>
<path d="M224.845 131.955C224.98 130.054 224.355 128.176 223.108 126.735C221.861 125.293 220.094 124.406 218.193 124.266L163.284 120.305L136.771 118.389C135.829 118.32 134.883 118.437 133.986 118.734C133.09 119.031 132.261 119.502 131.546 120.119C130.832 120.737 130.246 121.49 129.822 122.334C129.398 123.178 129.145 124.097 129.077 125.039C129.008 125.981 129.126 126.928 129.424 127.824C129.721 128.72 130.192 129.549 130.81 130.263C131.428 130.977 132.181 131.562 133.025 131.985C133.869 132.408 134.788 132.66 135.73 132.727L157.047 134.268L217.156 138.612C219.057 138.746 220.934 138.121 222.375 136.873C223.817 135.625 224.705 133.857 224.845 131.955Z" fill="white"/>
<path d="M222.909 158.63C223.044 156.729 222.419 154.851 221.172 153.41C219.925 151.968 218.158 151.08 216.257 150.941L206.955 150.269L151.682 146.278L134.837 145.058C132.936 144.923 131.06 145.547 129.619 146.795C128.178 148.042 127.291 149.811 127.153 151.711C127.015 153.612 127.636 155.49 128.882 156.932C130.127 158.374 131.894 159.262 133.794 159.402L145.445 160.241L215.222 165.281C215.379 165.295 215.536 165.296 215.693 165.297C217.517 165.309 219.277 164.626 220.617 163.389C221.957 162.151 222.776 160.45 222.909 158.63Z" fill="white"/>
<path d="M220.954 185.587C221.09 183.686 220.467 181.809 219.221 180.368C217.975 178.926 216.208 178.039 214.308 177.9L188.221 176.016L168.024 174.56L139.956 172.529L132.88 172.02C131.244 171.904 129.617 172.351 128.269 173.286C126.92 174.22 125.931 175.588 125.465 177.161C125.327 177.63 125.239 178.112 125.2 178.599L132.09 186.375L133.719 186.492L133.729 186.497L184.666 190.176L213.265 192.243C215.167 192.379 217.045 191.754 218.486 190.506C219.928 189.258 220.816 187.489 220.954 185.587Z" fill="white"/>
<path d="M202.458 94.8813C202.593 92.9795 201.968 91.1021 200.722 89.6607C199.475 88.2193 197.707 87.3315 195.806 87.192L164.274 84.911C162.373 84.7751 160.497 85.3996 159.056 86.6471C157.615 87.8946 156.728 89.6631 156.59 91.564C156.451 93.4649 157.073 95.3427 158.319 96.7847C159.564 98.2267 161.331 99.115 163.231 99.2544L173.209 99.9763L179.815 100.452L194.771 101.533C196.671 101.668 198.548 101.044 199.989 99.7966C201.43 98.5497 202.318 96.7819 202.458 94.8813Z" fill="white"/>
<path d="M171.891 102.265C172.188 101.597 172.648 101.016 173.227 100.575L173.483 100.395L173.485 100.394C174.023 100.039 174.632 99.8072 175.268 99.7144L175.541 99.6837C176.184 99.6309 176.829 99.7197 177.431 99.9437L177.686 100.048L304.707 156.788L304.903 156.882C305.806 157.341 306.523 158.099 306.931 159.026L307.014 159.228C307.43 160.314 307.396 161.522 306.922 162.584L275.544 232.83L244.996 232.998L216.439 233.161L185.801 233.333L176.011 233.388C175.509 233.39 175.013 233.285 174.554 233.081C174.096 232.876 173.686 232.576 173.353 232.201L173.354 232.201L166.862 224.873L162.751 220.234L133.796 187.547L171.891 102.265Z" fill="#293543" stroke="#F3F3F0"/>
<path d="M251.925 204.473L177.392 171.179C175.696 170.423 173.774 170.353 172.028 170.983C170.282 171.613 168.847 172.895 168.024 174.56C167.977 174.641 167.935 174.726 167.898 174.812C167.123 176.554 167.07 178.531 167.751 180.311C168.431 182.091 169.789 183.528 171.527 184.307L246.061 217.601C247.801 218.379 249.779 218.433 251.559 217.751C253.339 217.07 254.776 215.709 255.554 213.968C256.332 212.227 256.386 210.249 255.706 208.468C255.025 206.687 253.665 205.25 251.925 204.473Z" fill="white"/>
<path d="M244.565 232.353C243.834 230.812 242.576 229.584 241.018 228.892L166.484 195.598C164.744 194.82 162.766 194.766 160.986 195.448C159.205 196.129 157.768 197.49 156.991 199.231C156.213 200.972 156.158 202.95 156.839 204.731C157.52 206.511 158.879 207.948 160.62 208.726L216.441 233.661L244.998 233.498C244.886 233.105 244.741 232.722 244.565 232.353Z" fill="white"/>
<path d="M166.486 225.205L172.978 232.533C173.359 232.961 173.826 233.304 174.349 233.537C174.872 233.771 175.439 233.891 176.012 233.888L185.802 233.833L166.486 225.205Z" fill="white"/>
<path d="M247.756 169.043C247.858 167.573 247.507 166.107 246.749 164.843C245.992 163.58 244.864 162.58 243.52 161.979L214.651 149.083C213.39 148.521 211.994 148.334 210.63 148.545C209.265 148.755 207.99 149.354 206.956 150.269C206.187 150.946 205.574 151.781 205.158 152.716C204.383 154.458 204.33 156.435 205.01 158.215C205.69 159.995 207.048 161.432 208.787 162.211L237.655 175.107C238.711 175.578 239.864 175.788 241.018 175.719C242.172 175.649 243.293 175.302 244.284 174.706C245.276 174.111 246.109 173.286 246.713 172.3C247.318 171.314 247.675 170.196 247.756 169.043Z" fill="white"/>
<g opacity="0.5" filter="url(#filter1_d_75_405)">
<path d="M213.895 232.524L183.257 232.696L176.004 232.738C175.595 232.739 175.191 232.654 174.819 232.487C174.446 232.321 174.113 232.077 173.841 231.772L169.032 226.342L166.487 225.205L172.978 232.533C173.359 232.961 173.826 233.304 174.349 233.537C174.873 233.771 175.439 233.891 176.012 233.888L185.802 233.833L216.441 233.661L213.895 232.524ZM213.895 232.524L183.257 232.696L176.004 232.738C175.595 232.739 175.191 232.654 174.819 232.487C174.446 232.321 174.113 232.077 173.841 231.772L169.032 226.342L166.487 225.205L172.978 232.533C173.359 232.961 173.826 233.304 174.349 233.537C174.873 233.771 175.439 233.891 176.012 233.888L185.802 233.833L216.441 233.661L213.895 232.524ZM213.895 232.524L183.257 232.696L176.004 232.738C175.595 232.739 175.191 232.654 174.819 232.487C174.446 232.321 174.113 232.077 173.841 231.772L169.032 226.342L166.487 225.205L172.978 232.533C173.359 232.961 173.826 233.304 174.349 233.537C174.873 233.771 175.439 233.891 176.012 233.888L185.802 233.833L216.441 233.661L213.895 232.524ZM315.541 234.597C315.433 234.318 315.297 234.051 315.135 233.799C314.769 233.234 314.266 232.771 313.673 232.452C313.081 232.133 312.417 231.969 311.744 231.975L244.565 232.353L213.895 232.524L183.257 232.696L176.004 232.738C175.595 232.739 175.191 232.654 174.819 232.487C174.446 232.321 174.113 232.077 173.841 231.772L169.032 226.342L164.023 220.684L133.729 186.497L133.721 186.487L125.464 177.161L100.806 149.328L83.8285 130.166C83.6567 129.969 83.4634 129.792 83.2523 129.638C82.7956 129.279 82.2639 129.029 81.6968 128.905C80.7908 128.704 79.8432 128.822 79.0137 129.239C78.1842 129.655 77.5235 130.345 77.1431 131.192L18.2346 263.067C17.8003 264.042 17.7704 265.15 18.1514 266.147C18.5323 267.144 19.2931 267.948 20.2668 268.385L251.216 371.549C252.191 371.983 253.298 372.013 254.294 371.632C255.291 371.25 256.096 370.489 256.532 369.515L315.441 237.639C315.873 236.678 315.908 235.585 315.541 234.597ZM255.483 369.046C255.171 369.742 254.596 370.286 253.884 370.559C253.172 370.831 252.381 370.81 251.685 370.499L20.7359 267.334C20.0401 267.023 19.4963 266.448 19.2241 265.736C18.9519 265.024 18.9736 264.233 19.2843 263.536L78.1929 131.661C78.3891 131.222 78.6921 130.84 79.0742 130.548C79.4563 130.257 79.9052 130.066 80.3801 129.992C80.7137 129.942 81.0533 129.949 81.3846 130.013C81.4815 130.033 81.5772 130.059 81.6712 130.09C81.7803 130.121 81.887 130.161 81.9902 130.208C82.3631 130.375 82.6958 130.62 82.9659 130.927L100.688 150.931L125.2 178.599L132.089 186.375L133.207 187.637L162.376 220.566L166.487 225.205L172.978 232.533C173.359 232.961 173.826 233.304 174.349 233.537C174.873 233.771 175.439 233.891 176.012 233.888L185.802 233.833L216.441 233.661L244.998 233.498L311.753 233.126C312.233 233.123 312.706 233.241 313.129 233.468C313.552 233.696 313.912 234.026 314.174 234.428C314.205 234.472 314.233 234.518 314.257 234.566C314.287 234.612 314.312 234.661 314.331 234.712C314.524 235.091 314.629 235.509 314.639 235.934C314.65 236.36 314.565 236.782 314.391 237.17L255.483 369.046ZM213.895 232.524L183.257 232.696L176.004 232.738C175.595 232.739 175.191 232.654 174.819 232.487C174.446 232.321 174.113 232.077 173.841 231.772L169.032 226.342L166.487 225.205L172.978 232.533C173.359 232.961 173.826 233.304 174.349 233.537C174.873 233.771 175.439 233.891 176.012 233.888L185.802 233.833L216.441 233.661L213.895 232.524ZM213.895 232.524L183.257 232.696L176.004 232.738C175.595 232.739 175.191 232.654 174.819 232.487C174.446 232.321 174.113 232.077 173.841 231.772L169.032 226.342L166.487 225.205L172.978 232.533C173.359 232.961 173.826 233.304 174.349 233.537C174.873 233.771 175.439 233.891 176.012 233.888L185.802 233.833L216.441 233.661L213.895 232.524ZM132.089 186.375L133.207 187.637L133.718 186.492L132.089 186.375ZM213.895 232.524L183.257 232.696L176.004 232.738C175.595 232.739 175.191 232.654 174.819 232.487C174.446 232.321 174.113 232.077 173.841 231.772L169.032 226.342L166.487 225.205L172.978 232.533C173.359 232.961 173.826 233.304 174.349 233.537C174.873 233.771 175.439 233.891 176.012 233.888L185.802 233.833L216.441 233.661L213.895 232.524Z" fill="#F3F3F0"/>
</g>
</g>
<defs>
<filter id="filter0_d_75_405" x="77.0957" y="80.6598" width="242.488" height="162.294" filterUnits="userSpaceOnUse" color-interpolation-filters="sRGB">
<feFlood flood-opacity="0" result="BackgroundImageFix"/>
<feColorMatrix in="SourceAlpha" type="matrix" values="0 0 0 0 0 0 0 0 0 0 0 0 0 0 0 0 0 0 127 0" result="hardAlpha"/>
<feOffset dy="4"/>
<feGaussianBlur stdDeviation="2"/>
<feComposite in2="hardAlpha" operator="out"/>
<feColorMatrix type="matrix" values="0 0 0 0 0 0 0 0 0 0 0 0 0 0 0 0 0 0 0.25 0"/>
<feBlend mode="normal" in2="BackgroundImageFix" result="effect1_dropShadow_75_405"/>
<feBlend mode="normal" in="SourceGraphic" in2="effect1_dropShadow_75_405" result="shape"/>
</filter>
<filter id="filter1_d_75_405" x="13.8857" y="128.809" width="305.907" height="251.088" filterUnits="userSpaceOnUse" color-interpolation-filters="sRGB">
<feFlood flood-opacity="0" result="BackgroundImageFix"/>
<feColorMatrix in="SourceAlpha" type="matrix" values="0 0 0 0 0 0 0 0 0 0 0 0 0 0 0 0 0 0 127 0" result="hardAlpha"/>
<feOffset dy="4"/>
<feGaussianBlur stdDeviation="2"/>
<feComposite in2="hardAlpha" operator="out"/>
<feColorMatrix type="matrix" values="0 0 0 0 0 0 0 0 0 0 0 0 0 0 0 0 0 0 0.25 0"/>
<feBlend mode="normal" in2="BackgroundImageFix" result="effect1_dropShadow_75_405"/>
<feBlend mode="normal" in="SourceGraphic" in2="effect1_dropShadow_75_405" result="shape"/>
</filter>
<clipPath id="clip0_75_405">
<rect width="320.779" height="284.118" fill="white" transform="translate(115.88) rotate(24.0702)"/>
</clipPath>
</defs>
</svg>
